<?xml version="1.0" encoding="UTF-8"?>
<svg xmlns="http://www.w3.org/2000/svg" width="640" height="480" viewBox="0 0 640 480">
<!-- ==========================================================================
     TannoyBox — PLACEHOLDER PANEL ARTWORK (640 x 480, 4:3)
     Replace this file wholesale. Keep the viewBox at 640x480 and keep the
     control cut-outs where they are, or update Layout:: in PluginEditor.cpp.
     Delete <g id="placeholder-guides"> to lose the pink construction marks.
     ========================================================================== -->
<defs>
<linearGradient id="panelGrad" x1="0" y1="0" x2="0" y2="1">
<stop offset="0" stop-color="#363c36"/><stop offset="1" stop-color="#252a25"/>
</linearGradient>
<linearGradient id="recess" x1="0" y1="0" x2="0" y2="1">
<stop offset="0" stop-color="#0f110f"/><stop offset="1" stop-color="#1e221e"/>
</linearGradient>
</defs>
<rect width="640" height="480" fill="url(#panelGrad)"/>
<rect x="6" y="6" width="628" height="468" fill="none" stroke="#171a17" stroke-opacity="0.55" stroke-width="2"/>
<rect x="10" y="10" width="620" height="460" fill="none" stroke="#7e8a7b" stroke-opacity="0.20" stroke-width="1"/>
<circle cx="20" cy="20" r="6" fill="#171a17" fill-opacity="0.5"/>
<circle cx="20" cy="20" r="4.5" fill="#7e8a7b" fill-opacity="0.35"/>
<line x1="17" y1="17" x2="23" y2="23" stroke="#171a17" stroke-width="1.4"/>
<circle cx="620" cy="20" r="6" fill="#171a17" fill-opacity="0.5"/>
<circle cx="620" cy="20" r="4.5" fill="#7e8a7b" fill-opacity="0.35"/>
<line x1="617" y1="17" x2="623" y2="23" stroke="#171a17" stroke-width="1.4"/>
<circle cx="20" cy="460" r="6" fill="#171a17" fill-opacity="0.5"/>
<circle cx="20" cy="460" r="4.5" fill="#7e8a7b" fill-opacity="0.35"/>
<line x1="17" y1="457" x2="23" y2="463" stroke="#171a17" stroke-width="1.4"/>
<circle cx="620" cy="460" r="6" fill="#171a17" fill-opacity="0.5"/>
<circle cx="620" cy="460" r="4.5" fill="#7e8a7b" fill-opacity="0.35"/>
<line x1="617" y1="457" x2="623" y2="463" stroke="#171a17" stroke-width="1.4"/>
<!-- BRANDING ZONE: 0,0 640x92. logo.svg is drawn at 26,20 240x52 -->
<rect x="0" y="0" width="640" height="92" fill="#171a17" fill-opacity="0.28"/>
<line x1="16" y1="92" x2="624" y2="92" stroke="#7e8a7b" stroke-opacity="0.35" stroke-width="1"/>
<g id="grille" fill="#171a17" fill-opacity="0.5">
<circle cx="300.0" cy="24.0" r="2.6"/>
<circle cx="311.6" cy="24.0" r="2.6"/>
<circle cx="323.2" cy="24.0" r="2.6"/>
<circle cx="334.8" cy="24.0" r="2.6"/>
<circle cx="346.4" cy="24.0" r="2.6"/>
<circle cx="358.0" cy="24.0" r="2.6"/>
<circle cx="369.6" cy="24.0" r="2.6"/>
<circle cx="381.2" cy="24.0" r="2.6"/>
<circle cx="392.8" cy="24.0" r="2.6"/>
<circle cx="404.4" cy="24.0" r="2.6"/>
<circle cx="416.0" cy="24.0" r="2.6"/>
<circle cx="427.6" cy="24.0" r="2.6"/>
<circle cx="439.2" cy="24.0" r="2.6"/>
<circle cx="450.8" cy="24.0" r="2.6"/>
<circle cx="462.4" cy="24.0" r="2.6"/>
<circle cx="474.0" cy="24.0" r="2.6"/>
<circle cx="485.6" cy="24.0" r="2.6"/>
<circle cx="497.2" cy="24.0" r="2.6"/>
<circle cx="508.8" cy="24.0" r="2.6"/>
<circle cx="520.4" cy="24.0" r="2.6"/>
<circle cx="532.0" cy="24.0" r="2.6"/>
<circle cx="543.6" cy="24.0" r="2.6"/>
<circle cx="555.2" cy="24.0" r="2.6"/>
<circle cx="566.8" cy="24.0" r="2.6"/>
<circle cx="578.4" cy="24.0" r="2.6"/>
<circle cx="590.0" cy="24.0" r="2.6"/>
<circle cx="601.6" cy="24.0" r="2.6"/>
<circle cx="300.0" cy="40.8" r="2.6"/>
<circle cx="311.6" cy="40.8" r="2.6"/>
<circle cx="323.2" cy="40.8" r="2.6"/>
<circle cx="334.8" cy="40.8" r="2.6"/>
<circle cx="346.4" cy="40.8" r="2.6"/>
<circle cx="358.0" cy="40.8" r="2.6"/>
<circle cx="369.6" cy="40.8" r="2.6"/>
<circle cx="381.2" cy="40.8" r="2.6"/>
<circle cx="392.8" cy="40.8" r="2.6"/>
<circle cx="404.4" cy="40.8" r="2.6"/>
<circle cx="416.0" cy="40.8" r="2.6"/>
<circle cx="427.6" cy="40.8" r="2.6"/>
<circle cx="439.2" cy="40.8" r="2.6"/>
<circle cx="450.8" cy="40.8" r="2.6"/>
<circle cx="462.4" cy="40.8" r="2.6"/>
<circle cx="474.0" cy="40.8" r="2.6"/>
<circle cx="485.6" cy="40.8" r="2.6"/>
<circle cx="497.2" cy="40.8" r="2.6"/>
<circle cx="508.8" cy="40.8" r="2.6"/>
<circle cx="520.4" cy="40.8" r="2.6"/>
<circle cx="532.0" cy="40.8" r="2.6"/>
<circle cx="543.6" cy="40.8" r="2.6"/>
<circle cx="555.2" cy="40.8" r="2.6"/>
<circle cx="566.8" cy="40.8" r="2.6"/>
<circle cx="578.4" cy="40.8" r="2.6"/>
<circle cx="590.0" cy="40.8" r="2.6"/>
<circle cx="601.6" cy="40.8" r="2.6"/>
<circle cx="300.0" cy="46.0" r="2.6"/>
<circle cx="311.6" cy="46.0" r="2.6"/>
<circle cx="323.2" cy="46.0" r="2.6"/>
<circle cx="334.8" cy="46.0" r="2.6"/>
<circle cx="346.4" cy="46.0" r="2.6"/>
<circle cx="358.0" cy="46.0" r="2.6"/>
<circle cx="369.6" cy="46.0" r="2.6"/>
<circle cx="381.2" cy="46.0" r="2.6"/>
<circle cx="392.8" cy="46.0" r="2.6"/>
<circle cx="404.4" cy="46.0" r="2.6"/>
<circle cx="416.0" cy="46.0" r="2.6"/>
<circle cx="427.6" cy="46.0" r="2.6"/>
<circle cx="439.2" cy="46.0" r="2.6"/>
<circle cx="450.8" cy="46.0" r="2.6"/>
<circle cx="462.4" cy="46.0" r="2.6"/>
<circle cx="474.0" cy="46.0" r="2.6"/>
<circle cx="485.6" cy="46.0" r="2.6"/>
<circle cx="497.2" cy="46.0" r="2.6"/>
<circle cx="508.8" cy="46.0" r="2.6"/>
<circle cx="520.4" cy="46.0" r="2.6"/>
<circle cx="532.0" cy="46.0" r="2.6"/>
<circle cx="543.6" cy="46.0" r="2.6"/>
<circle cx="555.2" cy="46.0" r="2.6"/>
<circle cx="566.8" cy="46.0" r="2.6"/>
<circle cx="578.4" cy="46.0" r="2.6"/>
<circle cx="590.0" cy="46.0" r="2.6"/>
<circle cx="601.6" cy="46.0" r="2.6"/>
<circle cx="300.0" cy="62.8" r="2.6"/>
<circle cx="311.6" cy="62.8" r="2.6"/>
<circle cx="323.2" cy="62.8" r="2.6"/>
<circle cx="334.8" cy="62.8" r="2.6"/>
<circle cx="346.4" cy="62.8" r="2.6"/>
<circle cx="358.0" cy="62.8" r="2.6"/>
<circle cx="369.6" cy="62.8" r="2.6"/>
<circle cx="381.2" cy="62.8" r="2.6"/>
<circle cx="392.8" cy="62.8" r="2.6"/>
<circle cx="404.4" cy="62.8" r="2.6"/>
<circle cx="416.0" cy="62.8" r="2.6"/>
<circle cx="427.6" cy="62.8" r="2.6"/>
<circle cx="439.2" cy="62.8" r="2.6"/>
<circle cx="450.8" cy="62.8" r="2.6"/>
<circle cx="462.4" cy="62.8" r="2.6"/>
<circle cx="474.0" cy="62.8" r="2.6"/>
<circle cx="485.6" cy="62.8" r="2.6"/>
<circle cx="497.2" cy="62.8" r="2.6"/>
<circle cx="508.8" cy="62.8" r="2.6"/>
<circle cx="520.4" cy="62.8" r="2.6"/>
<circle cx="532.0" cy="62.8" r="2.6"/>
<circle cx="543.6" cy="62.8" r="2.6"/>
<circle cx="555.2" cy="62.8" r="2.6"/>
<circle cx="566.8" cy="62.8" r="2.6"/>
<circle cx="578.4" cy="62.8" r="2.6"/>
<circle cx="590.0" cy="62.8" r="2.6"/>
<circle cx="601.6" cy="62.8" r="2.6"/>
<circle cx="300.0" cy="68.0" r="2.6"/>
<circle cx="311.6" cy="68.0" r="2.6"/>
<circle cx="323.2" cy="68.0" r="2.6"/>
<circle cx="334.8" cy="68.0" r="2.6"/>
<circle cx="346.4" cy="68.0" r="2.6"/>
<circle cx="358.0" cy="68.0" r="2.6"/>
<circle cx="369.6" cy="68.0" r="2.6"/>
<circle cx="381.2" cy="68.0" r="2.6"/>
<circle cx="392.8" cy="68.0" r="2.6"/>
<circle cx="404.4" cy="68.0" r="2.6"/>
<circle cx="416.0" cy="68.0" r="2.6"/>
<circle cx="427.6" cy="68.0" r="2.6"/>
<circle cx="439.2" cy="68.0" r="2.6"/>
<circle cx="450.8" cy="68.0" r="2.6"/>
<circle cx="462.4" cy="68.0" r="2.6"/>
<circle cx="474.0" cy="68.0" r="2.6"/>
<circle cx="485.6" cy="68.0" r="2.6"/>
<circle cx="497.2" cy="68.0" r="2.6"/>
<circle cx="508.8" cy="68.0" r="2.6"/>
<circle cx="520.4" cy="68.0" r="2.6"/>
<circle cx="532.0" cy="68.0" r="2.6"/>
<circle cx="543.6" cy="68.0" r="2.6"/>
<circle cx="555.2" cy="68.0" r="2.6"/>
<circle cx="566.8" cy="68.0" r="2.6"/>
<circle cx="578.4" cy="68.0" r="2.6"/>
<circle cx="590.0" cy="68.0" r="2.6"/>
<circle cx="601.6" cy="68.0" r="2.6"/>
</g>
<text x="614.0" y="82.0" font-family="Helvetica Neue, Helvetica, Arial, sans-serif" font-size="8" font-weight="normal" fill="#7e8a7b" fill-opacity="0.9" text-anchor="end" letter-spacing="1.2">PUBLIC ADDRESS PROCESSOR</text>
<!-- control cut-out: VINTAGE -->
<circle cx="144" cy="214" r="114" fill="#171a17" fill-opacity="0.22"/>
<circle cx="144" cy="214" r="114" fill="none" stroke="#7e8a7b" stroke-opacity="0.22" stroke-width="1"/>
<text x="56.3" y="304.7" font-family="Helvetica Neue, Helvetica, Arial, sans-serif" font-size="9" font-weight="normal" fill="#d8cfb8" fill-opacity="0.85" text-anchor="middle" letter-spacing="1.2">MODERN</text>
<text x="56.3" y="129.3" font-family="Helvetica Neue, Helvetica, Arial, sans-serif" font-size="9" font-weight="normal" fill="#d8cfb8" fill-opacity="0.85" text-anchor="middle" letter-spacing="1.2">1970s</text>
<text x="231.7" y="129.3" font-family="Helvetica Neue, Helvetica, Arial, sans-serif" font-size="9" font-weight="normal" fill="#d8cfb8" fill-opacity="0.85" text-anchor="middle" letter-spacing="1.2">1960s</text>
<text x="231.7" y="304.7" font-family="Helvetica Neue, Helvetica, Arial, sans-serif" font-size="9" font-weight="normal" fill="#d8cfb8" fill-opacity="0.85" text-anchor="middle" letter-spacing="1.2">1950s</text>
<text x="144.0" y="356.0" font-family="Helvetica Neue, Helvetica, Arial, sans-serif" font-size="15" font-weight="bold" fill="#d8cfb8" fill-opacity="1.0" text-anchor="middle" letter-spacing="1.2">VINTAGE</text>
<text x="144.0" y="372.0" font-family="Helvetica Neue, Helvetica, Arial, sans-serif" font-size="8" font-weight="normal" fill="#7e8a7b" fill-opacity="0.95" text-anchor="middle" letter-spacing="1.2">ERA PROFILE</text>
<!-- control cut-out: SIZE -->
<circle cx="496" cy="214" r="114" fill="#171a17" fill-opacity="0.22"/>
<circle cx="496" cy="214" r="114" fill="none" stroke="#7e8a7b" stroke-opacity="0.22" stroke-width="1"/>
<text x="408.3" y="304.7" font-family="Helvetica Neue, Helvetica, Arial, sans-serif" font-size="9" font-weight="normal" fill="#d8cfb8" fill-opacity="0.85" text-anchor="middle" letter-spacing="1.2">5</text>
<text x="381.4" y="169.5" font-family="Helvetica Neue, Helvetica, Arial, sans-serif" font-size="9" font-weight="normal" fill="#d8cfb8" fill-opacity="0.85" text-anchor="middle" letter-spacing="1.2">30</text>
<text x="496.0" y="93.0" font-family="Helvetica Neue, Helvetica, Arial, sans-serif" font-size="9" font-weight="normal" fill="#d8cfb8" fill-opacity="0.85" text-anchor="middle" letter-spacing="1.2">60</text>
<text x="610.6" y="169.5" font-family="Helvetica Neue, Helvetica, Arial, sans-serif" font-size="9" font-weight="normal" fill="#d8cfb8" fill-opacity="0.85" text-anchor="middle" letter-spacing="1.2">90</text>
<text x="583.7" y="304.7" font-family="Helvetica Neue, Helvetica, Arial, sans-serif" font-size="9" font-weight="normal" fill="#d8cfb8" fill-opacity="0.85" text-anchor="middle" letter-spacing="1.2">115</text>
<text x="496.0" y="356.0" font-family="Helvetica Neue, Helvetica, Arial, sans-serif" font-size="15" font-weight="bold" fill="#d8cfb8" fill-opacity="1.0" text-anchor="middle" letter-spacing="1.2">SIZE</text>
<text x="496.0" y="372.0" font-family="Helvetica Neue, Helvetica, Arial, sans-serif" font-size="8" font-weight="normal" fill="#7e8a7b" fill-opacity="0.95" text-anchor="middle" letter-spacing="1.2">DISTANCE &#183; TAIL</text>
<text x="496.0" y="76.0" font-family="Helvetica Neue, Helvetica, Arial, sans-serif" font-size="8" font-weight="normal" fill="#7e8a7b" fill-opacity="0.8" text-anchor="middle" letter-spacing="1.2">METRES</text>
<!-- READOUT WINDOW: nameplate.svg is drawn at 262,120 116x180 -->
<rect x="256" y="114" width="128" height="192" rx="4" fill="#171a17" fill-opacity="0.35"/>
<rect x="256" y="114" width="128" height="192" rx="4" fill="none" stroke="#7e8a7b" stroke-opacity="0.25"/>
<line x1="16" y1="356" x2="624" y2="356" stroke="#7e8a7b" stroke-opacity="0.35" stroke-width="1"/>
<rect x="0" y="356" width="640" height="124" fill="#171a17" fill-opacity="0.18"/>
<circle cx="96" cy="404" r="44" fill="#171a17" fill-opacity="0.20"/>
<text x="96.0" y="460.0" font-family="Helvetica Neue, Helvetica, Arial, sans-serif" font-size="11" font-weight="bold" fill="#d8cfb8" fill-opacity="1.0" text-anchor="middle" letter-spacing="1.2">DRIVE</text>
<text x="96.0" y="472.0" font-family="Helvetica Neue, Helvetica, Arial, sans-serif" font-size="7" font-weight="normal" fill="#7e8a7b" fill-opacity="0.9" text-anchor="middle" letter-spacing="1.2">INPUT TRIM</text>
<circle cx="245" cy="404" r="44" fill="#171a17" fill-opacity="0.20"/>
<text x="245.0" y="460.0" font-family="Helvetica Neue, Helvetica, Arial, sans-serif" font-size="11" font-weight="bold" fill="#d8cfb8" fill-opacity="1.0" text-anchor="middle" letter-spacing="1.2">HOWL</text>
<text x="245.0" y="472.0" font-family="Helvetica Neue, Helvetica, Arial, sans-serif" font-size="7" font-weight="normal" fill="#7e8a7b" fill-opacity="0.9" text-anchor="middle" letter-spacing="1.2">FEEDBACK</text>
<circle cx="395" cy="404" r="44" fill="#171a17" fill-opacity="0.20"/>
<text x="395.0" y="460.0" font-family="Helvetica Neue, Helvetica, Arial, sans-serif" font-size="11" font-weight="bold" fill="#d8cfb8" fill-opacity="1.0" text-anchor="middle" letter-spacing="1.2">MIX</text>
<text x="395.0" y="472.0" font-family="Helvetica Neue, Helvetica, Arial, sans-serif" font-size="7" font-weight="normal" fill="#7e8a7b" fill-opacity="0.9" text-anchor="middle" letter-spacing="1.2">DRY / PA</text>
<circle cx="544" cy="404" r="44" fill="#171a17" fill-opacity="0.20"/>
<text x="544.0" y="460.0" font-family="Helvetica Neue, Helvetica, Arial, sans-serif" font-size="11" font-weight="bold" fill="#d8cfb8" fill-opacity="1.0" text-anchor="middle" letter-spacing="1.2">OUTPUT</text>
<text x="544.0" y="472.0" font-family="Helvetica Neue, Helvetica, Arial, sans-serif" font-size="7" font-weight="normal" fill="#7e8a7b" fill-opacity="0.9" text-anchor="middle" letter-spacing="1.2">MAKE-UP</text>
<g id="placeholder-guides" stroke="#e5195e" fill="none" stroke-width="1" stroke-dasharray="5 4" opacity="0.75">
<rect x="26" y="20" width="240" height="52"/>
<rect x="262" y="120" width="116" height="180"/>
<rect x="46" y="116" width="196" height="196"/>
<rect x="398" y="116" width="196" height="196"/>
<rect x="64" y="372" width="64" height="64"/>
<rect x="213" y="372" width="64" height="64"/>
<rect x="363" y="372" width="64" height="64"/>
<rect x="512" y="372" width="64" height="64"/>
</g>
<text x="320" y="106" font-family="Helvetica Neue, Helvetica, Arial, sans-serif" font-size="8" fill="#e5195e" text-anchor="middle" letter-spacing="1.5">PLACEHOLDER &#183; RESOURCES/BACKGROUND.SVG &#183; 640 &#215; 480</text>
</svg>
